<?xml version="1.0" standalone="no"?>
<svg xmlns:xlink="http://www.w3.org/1999/xlink" id="wave" style="transform:rotate(0deg); transition: 0.3s" viewBox="0 0 1440 490" version="1.1" xmlns="http://www.w3.org/2000/svg"><defs><linearGradient id="sw-gradient-0" x1="0" x2="0" y1="1" y2="0"><stop stop-color="rgba(243, 106, 62, 1)" offset="0%"/><stop stop-color="rgba(255, 179, 11, 1)" offset="100%"/></linearGradient></defs><path style="transform:translate(0, 0px); opacity:1" fill="url(#sw-gradient-0)" d="M0,294L240,253.2C480,212,960,131,1440,89.8C1920,49,2400,49,2880,114.3C3360,180,3840,310,4320,375.7C4800,441,5280,441,5760,408.3C6240,376,6720,310,7200,277.7C7680,245,8160,245,8640,261.3C9120,278,9600,310,10080,285.8C10560,261,11040,180,11520,122.5C12000,65,12480,33,12960,16.3C13440,0,13920,0,14400,0C14880,0,15360,0,15840,65.3C16320,131,16800,261,17280,269.5C17760,278,18240,163,18720,155.2C19200,147,19680,245,20160,253.2C20640,261,21120,180,21600,196C22080,212,22560,327,23040,343C23520,359,24000,278,24480,253.2C24960,229,25440,261,25920,261.3C26400,261,26880,229,27360,220.5C27840,212,28320,229,28800,236.8C29280,245,29760,245,30240,228.7C30720,212,31200,180,31680,212.3C32160,245,32640,343,33120,392C33600,441,34080,441,34320,441L34560,441L34560,490L34320,490C34080,490,33600,490,33120,490C32640,490,32160,490,31680,490C31200,490,30720,490,30240,490C29760,490,29280,490,28800,490C28320,490,27840,490,27360,490C26880,490,26400,490,25920,490C25440,490,24960,490,24480,490C24000,490,23520,490,23040,490C22560,490,22080,490,21600,490C21120,490,20640,490,20160,490C19680,490,19200,490,18720,490C18240,490,17760,490,17280,490C16800,490,16320,490,15840,490C15360,490,14880,490,14400,490C13920,490,13440,490,12960,490C12480,490,12000,490,11520,490C11040,490,10560,490,10080,490C9600,490,9120,490,8640,490C8160,490,7680,490,7200,490C6720,490,6240,490,5760,490C5280,490,4800,490,4320,490C3840,490,3360,490,2880,490C2400,490,1920,490,1440,490C960,490,480,490,240,490L0,490Z"/></svg>